<svg width="120" height="90" viewBox="0 0 120 90" fill="none" xmlns="http://www.w3.org/2000/svg">
  <!-- Main star -->
  <path d="M20 15L24 30L39 24L30 35L39 46L24 40L20 55L16 40L1 46L10 35L1 24L16 30L20 15Z" fill="#f0e6d3"/>
  
  <!-- Trail stars - clustered near main star, fading into distance -->
  <path d="M38 42L39.5 46L44 44.5L41 47.5L44 50.5L39.5 49L38 53L36.5 49L32 50.5L35 47.5L32 44.5L36.5 46L38 42Z" fill="#f0e6d3" opacity="0.8"/>
  <path d="M32 52L33.2 55.2L37 54L34.5 56.5L37 59L33.2 57.8L32 61L30.8 57.8L27 59L29.5 56.5L27 54L30.8 55.2L32 52Z" fill="#f0e6d3" opacity="0.75"/>
  <path d="M44 50L45 53L48.5 51.8L46.3 54L48.5 56.2L45 55L44 58L43 55L39.5 56.2L41.7 54L39.5 51.8L43 53L44 50Z" fill="#f0e6d3" opacity="0.7"/>
  <path d="M28 60L29 62.5L32 61.5L30.2 63.5L32 65.5L29 64.5L28 67L27 64.5L24 65.5L25.8 63.5L24 61.5L27 62.5L28 60Z" fill="#f0e6d3" opacity="0.65"/>
  <path d="M40 58L40.9 60.3L43.5 59.4L41.8 61.2L43.5 63L40.9 62.1L40 64.4L39.1 62.1L36.5 63L38.2 61.2L36.5 59.4L39.1 60.3L40 58Z" fill="#f0e6d3" opacity="0.6"/>
  <path d="M50 54L50.8 56L53 55.2L51.5 56.8L53 58.4L50.8 57.6L50 59.6L49.2 57.6L47 58.4L48.5 56.8L47 55.2L49.2 56L50 54Z" fill="#f0e6d3" opacity="0.55"/>
  
  <!-- Middle distance -->
  <path d="M35 68L35.7 69.8L38 69.1L36.6 70.5L38 71.9L35.7 71.2L35 73L34.3 71.2L32 71.9L33.4 70.5L32 69.1L34.3 69.8L35 68Z" fill="#f0e6d3" opacity="0.45"/>
  <path d="M52 62L52.7 63.6L55 63L53.6 64.3L55 65.6L52.7 65L52 66.6L51.3 65L49 65.6L50.4 64.3L49 63L51.3 63.6L52 62Z" fill="#f0e6d3" opacity="0.4"/>
  <path d="M46 70L46.6 71.5L48.7 70.9L47.4 72.1L48.7 73.3L46.6 72.7L46 74.2L45.4 72.7L43.3 73.3L44.6 72.1L43.3 70.9L45.4 71.5L46 70Z" fill="#f0e6d3" opacity="0.38"/>
  <path d="M60 58L60.6 59.4L62.5 58.9L61.3 60L62.5 61.1L60.6 60.6L60 62L59.4 60.6L57.5 61.1L58.7 60L57.5 58.9L59.4 59.4L60 58Z" fill="#f0e6d3" opacity="0.35"/>
  <path d="M56 68L56.5 69.2L58.2 68.8L57.2 69.8L58.2 70.8L56.5 70.4L56 71.6L55.5 70.4L53.8 70.8L54.8 69.8L53.8 68.8L55.5 69.2L56 68Z" fill="#f0e6d3" opacity="0.32"/>
  
  <!-- Far distance -->
  <path d="M42 78L42.4 79L43.8 78.6L43 79.4L43.8 80.2L42.4 79.8L42 80.8L41.6 79.8L40.2 80.2L41 79.4L40.2 78.6L41.6 79L42 78Z" fill="#f0e6d3" opacity="0.25"/>
  <path d="M64 66L64.4 66.9L65.7 66.6L65 67.3L65.7 68L64.4 67.7L64 68.6L63.6 67.7L62.3 68L63 67.3L62.3 66.6L63.6 66.9L64 66Z" fill="#f0e6d3" opacity="0.22"/>
  <path d="M55 76L55.4 76.8L56.5 76.5L55.8 77.2L56.5 77.9L55.4 77.6L55 78.4L54.6 77.6L53.5 77.9L54.2 77.2L53.5 76.5L54.6 76.8L55 76Z" fill="#f0e6d3" opacity="0.2"/>
  <path d="M70 62L70.3 62.8L71.4 62.5L70.8 63.1L71.4 63.7L70.3 63.4L70 64.2L69.7 63.4L68.6 63.7L69.2 63.1L68.6 62.5L69.7 62.8L70 62Z" fill="#f0e6d3" opacity="0.18"/>
  <path d="M66 74L66.3 74.7L67.3 74.4L66.7 75L67.3 75.6L66.3 75.3L66 76L65.7 75.3L64.7 75.6L65.3 75L64.7 74.4L65.7 74.7L66 74Z" fill="#f0e6d3" opacity="0.15"/>
  
  <!-- Farthest -->
  <path d="M78 68L78.25 68.6L79 68.4L78.5 68.9L79 69.4L78.25 69.2L78 69.8L77.75 69.2L77 69.4L77.5 68.9L77 68.4L77.75 68.6L78 68Z" fill="#f0e6d3" opacity="0.12"/>
  <path d="M62 82L62.2 82.5L62.8 82.3L62.4 82.7L62.8 83.1L62.2 82.9L62 83.4L61.8 82.9L61.2 83.1L61.6 82.7L61.2 82.3L61.8 82.5L62 82Z" fill="#f0e6d3" opacity="0.1"/>
  <path d="M74 78L74.2 78.45L74.7 78.3L74.35 78.65L74.7 79L74.2 78.85L74 79.3L73.8 78.85L73.3 79L73.65 78.65L73.3 78.3L73.8 78.45L74 78Z" fill="#f0e6d3" opacity="0.08"/>
</svg>
